<svg xmlns="http://www.w3.org/2000/svg" xmlns:xlink="http://www.w3.org/1999/xlink" width="256" height="256"><defs><linearGradient id="g"><stop offset="0" style="stop-color:#d7def0;stop-opacity:1"/><stop offset=".5" style="stop-color:#fff;stop-opacity:1"/><stop offset="1" style="stop-color:#d5def0;stop-opacity:1"/></linearGradient><linearGradient id="f"><stop offset="0" style="stop-color:#b2cde9;stop-opacity:1"/><stop offset="1" style="stop-color:#c4dbee;stop-opacity:1"/></linearGradient><linearGradient id="e"><stop offset="0" style="stop-color:#d0e2f1;stop-opacity:1"/><stop offset=".856" style="stop-color:#cadef0;stop-opacity:1"/><stop offset="1" style="stop-color:#95bee3;stop-opacity:1"/></linearGradient><linearGradient id="d"><stop offset="0" style="stop-color:#658db6;stop-opacity:1"/><stop offset=".768" style="stop-color:#527fab;stop-opacity:1"/><stop offset="1" style="stop-color:#4071a0;stop-opacity:1"/></linearGradient><linearGradient id="c"><stop offset="0" style="stop-color:#96d0e1;stop-opacity:1"/><stop offset=".678" style="stop-color:#89b7e1;stop-opacity:1"/><stop offset="1" style="stop-color:#699dd3;stop-opacity:1"/></linearGradient><linearGradient id="b"><stop offset="0" style="stop-color:#3b79bc;stop-opacity:1"/><stop offset="1" style="stop-color:#94b8e0;stop-opacity:1"/></linearGradient><linearGradient id="a"><stop offset="0" style="stop-color:#fff;stop-opacity:1"/><stop offset="1" style="stop-color:#000;stop-opacity:0"/></linearGradient><linearGradient xlink:href="#b" id="m" x1="-397.813" x2="-397.559" y1="149.188" y2="51.356" gradientUnits="userSpaceOnUse"/><linearGradient xlink:href="#f" id="i" x1="162.071" x2="220.761" y1="85.24" y2="78.876" gradientTransform="translate(3.392 7.419)" gradientUnits="userSpaceOnUse"/><linearGradient xlink:href="#g" id="n" x1="-382.041" x2="-381.394" y1="37.281" y2="165.567" gradientUnits="userSpaceOnUse"/><radialGradient xlink:href="#a" id="h" cx="-118.78" cy="121.492" r="25.492" fx="-118.78" fy="121.492" gradientTransform="matrix(.02178 -.95744 .97872 .02222 -235.1 5.068)" gradientUnits="userSpaceOnUse"/><radialGradient xlink:href="#c" id="l" cx="-383.275" cy="217.91" r="59.402" fx="-383.275" fy="217.91" gradientTransform="rotate(183.824 -204.674 241.844)scale(1.28903 1.7175)" gradientUnits="userSpaceOnUse"/><radialGradient xlink:href="#d" id="j" cx="-123.5" cy="-11.571" r="95.627" fx="-123.5" fy="-11.571" gradientTransform="rotate(90.777 5.709 107.463)scale(.55757 1.03155)" gradientUnits="userSpaceOnUse"/><radialGradient xlink:href="#e" id="k" cx="-94.873" cy="165.273" r="60.481" fx="-94.873" fy="165.273" gradientTransform="rotate(64.44 188.2 507.012)scale(1.8842 2.38535)" gradientUnits="userSpaceOnUse"/></defs><path d="M-92.746 122.576a25.492 25.492 0 1 1-50.983 0 25.492 25.492 0 1 1 50.983 0" style="fill:url(#h);fill-opacity:1;fill-rule:nonzero;stroke:none" transform="matrix(4.68085 0 0 4.79787 685.105 -449.7)"/><path d="M232.173 88.12c0 15.674-19.792 34.932-45.844 34.932-26.053 0-59.923-16.081-59.923-31.755s21.12-28.38 47.173-28.38c19.902 0 46.36 18.293 56.46 20.352.791 1.71 1.368 2.925 2.134 4.851" style="fill:url(#i);fill-opacity:1;fill-rule:nonzero;stroke:none"/><path d="M38.822 65.972c12.381-9.611 35.315-1.246 51.29 19.334s17.695 51.065 5.313 60.676c-12.381 9.611-34.176-5.291-50.15-25.871-12.205-15.722-4.051-41.191-8.617-50.43a78 78 0 0 1 2.164-3.71" style="fill:#2e5c91;fill-opacity:1;fill-rule:nonzero;stroke:none"/><path d="M230.043 83.262c-7.008-.033-61.07.29-107.665.065-17.371 5.108-31.705 13.259-39.182 29.155-5.336-4.542-40.746-42.215-44.407-46.44 31.39-41.65 74.528-45.56 82.915-45.56s70.645-8.632 108.34 62.78" style="fill:url(#j);fill-opacity:1;fill-rule:nonzero;stroke:none"/><path d="M117.125 243.968c-12.499-9.458-14.576-36.94 1.146-57.713 15.721-20.775 41.036-34.948 53.534-25.49 12.498 9.46 7.448 38.968-8.274 59.742-12.01 15.87-35.49 16.885-43.226 23.695-1.24-.046-1.956-.06-3.18-.234" style="fill:#699dd3;fill-opacity:1;fill-rule:nonzero;stroke:none"/><path d="M120.303 244.201c3.584-6.023 28.859-52.9 52.692-92.939 4.41-17.56 5.346-33.642-4.559-48.15 6.622-2.294 58.239-13.976 63.737-14.987 19.966 48.18 1.45 87.338-2.805 94.565s-28.402 65.257-109.065 61.511" style="fill:url(#k);fill-opacity:1;fill-rule:nonzero;stroke:none"/><path d="M36.697 69.643c3.468 6.09 30.723 52.78 53.778 93.272 13.095 12.505 27.685 19.485 45.192 18.033-1.274 6.892-16.629 57.75-18.464 63.032-51.756-6.422-76.67-41.855-80.854-49.124-4.185-7.268-42.73-56.914.348-125.213" style="fill:url(#l);fill-opacity:1;fill-rule:nonzero;stroke:none"/><path d="M-338.44 101.424c0 32.65-26.469 59.118-59.12 59.118s-59.118-26.468-59.118-59.118 26.468-59.119 59.119-59.119 59.118 26.468 59.118 59.119z" style="fill:url(#m);fill-opacity:1;stroke:url(#n);stroke-width:10.07013607;stroke-miterlimit:4;stroke-opacity:1" transform="matrix(.77295 0 0 .7762 435.906 53.276)"/><path d="M163.546 108.896c18.53 17.098 16.033 29.558 10.063 44-3.11-22.25-2.345-32.427-10.063-44M101.42 173.64c-22.645-14.474-29.809-45.72-8.812-62.991-10.848 19.775-6.226 32.399 8.813 62.99" style="fill:#fff;fill-opacity:1;fill-rule:nonzero;stroke:none"/></svg>