<svg xmlns="http://www.w3.org/2000/svg" viewBox="15.5 15.5 224.5 224.5"><defs><radialGradient id="c" cx=".5" cy="0"><stop stop-color="#f06b59"/><stop offset="1" stop-color="#df2227"/></radialGradient><radialGradient id="d" cx=".65" cy=".3" r=".76"><stop offset=".65" stop-color="#4cb749"/><stop offset="1" stop-color="#388b41"/></radialGradient><radialGradient id="e" cx=".36" cy=".25" r=".8"><stop offset=".6" stop-color="#fcd209"/><stop offset=".7" stop-color="#f7c616"/><stop offset="1" stop-color="#bc821e"/></radialGradient><radialGradient id="a" cx=".5" cy="0" r="1" spreadMethod="pad"><stop offset=".1" stop-color="#7fb3df"/><stop offset=".9" stop-color="#0f5b94"/></radialGradient><radialGradient id="b" cx=".5" cy="0" r="1"><stop offset="0" stop-color="#f6f0ee"/><stop offset="1" stop-color="#ddd"/></radialGradient></defs><path fill-opacity=".1" d="M198 148a70 70 0 0 0-140 0h20a50 50 0 0 1 100 0"/><circle cx="127.5" cy="127.6" r="45" fill="url(#a)" stroke="url(#b)" stroke-width="9"/><path fill="url(#c)" d="M228 78A112 112 0 0 0 35 65l45 78a50 50 0 0 1 47-65"/><path fill="url(#d)" d="M35 65a112 112 0 0 0 84 174l47-80a50 50 0 0 1-86-16"/><path fill="url(#e)" d="M119 239A112 112 0 0 0 228 78H127a50 50 0 0 1 39 81"/><path d="m35 65 45 78a50 50 0 0 1 2-34L37 62" opacity=".075"/><path d="m119 239 47-80a50 50 0 0 1-29 17l-20 63M228 78H127a50 50 0 0 1 39 19l64-16" opacity=".05"/></svg>