<svg xmlns="http://www.w3.org/2000/svg" width="48" height="48"><defs><linearGradient id="c" x1="71.204" x2="71.204" y1="15.369" y2="40.496" gradientTransform="translate(-92.707 -21.06)scale(1.617)" gradientUnits="userSpaceOnUse"><stop offset="0" stop-color="#fff"/><stop offset=".424" stop-color="#fff" stop-opacity=".235"/><stop offset=".821" stop-color="#fff" stop-opacity=".157"/><stop offset="1" stop-color="#fff" stop-opacity=".392"/></linearGradient><linearGradient id="d" x1="-26.882" x2="103.56" y1="26.21" y2="26.21" gradientUnits="userSpaceOnUse"><stop offset="0"/><stop offset="1" stop-opacity="0"/></linearGradient><linearGradient id="e" x1="-204.68" x2="-204.68" y1="-33.398" y2="85.819" gradientUnits="userSpaceOnUse"><stop offset="0" stop-color="#fff"/><stop offset="1" stop-color="#cee7dd"/></linearGradient><radialGradient id="b" cx="23.896" cy="3.99" r="20.397" gradientTransform="matrix(0 2.8885 -3.8128 0 39.213 -65.95)" gradientUnits="userSpaceOnUse"><stop offset="0" stop-color="#b1e198"/><stop offset=".262" stop-color="#71c586"/><stop offset=".661" stop-color="#04a171"/><stop offset="1" stop-color="#108562"/></radialGradient><radialGradient id="a" cx="99.157" cy="186.17" r="62.769" gradientTransform="matrix(.27083 0 0 .08762 -2.855 25.187)" gradientUnits="userSpaceOnUse"><stop offset="0" stop-color="#3d3d3d"/><stop offset=".5" stop-color="#686868" stop-opacity=".498"/><stop offset="1" stop-color="#686868" stop-opacity="0"/></radialGradient></defs><path fill="url(#a)" d="M41 41.5a17 5.5 0 0 1-34 0 17 5.5 0 1 1 34 0"/><path fill="url(#b)" d="M24 3.5C12.689 3.5 3.5 12.689 3.5 24S12.689 44.5 24 44.5 44.5 35.311 44.5 24 35.311 3.5 24 3.5" style="color:#000"/><path fill="none" stroke="url(#c)" stroke-linecap="round" stroke-linejoin="round" d="M43.5 24c0 10.77-8.73 19.5-19.5 19.5S4.5 34.77 4.5 24 13.23 4.5 24 4.5 43.5 13.23 43.5 24" opacity=".8" style="color:#000"/><path fill="none" stroke="#006344" d="M24 3.5C12.689 3.5 3.5 12.689 3.5 24S12.689 44.5 24 44.5 44.5 35.311 44.5 24 35.311 3.5 24 3.5z" opacity=".7" style="color:#000"/><g stroke="#000" stroke-width="9.171" opacity=".05"><path stroke-linecap="round" d="M-218.58-33.356c-1.63.12-3.238.537-4.72 1.28-3.955 1.984-6.365 5.944-7.523 10.578s-1.232 10.142-.466 16.354c.311 2.517.798 5.18 1.389 7.908-4.014.839-7.834 1.785-11.177 2.973-5.15 1.83-9.45 4.042-12.691 6.798-3.24 2.755-5.501 6.257-5.714 10.255-.203 3.808 1.502 7.379 4.191 10.353s6.398 5.54 10.926 7.836a3.44 3.44 0 1 0 3.108-6.135c-4.016-2.036-7.07-4.248-8.938-6.314s-2.502-3.797-2.418-5.373c.088-1.656 1-3.423 3.304-5.383 2.305-1.96 5.917-3.913 10.532-5.552 3.06-1.087 6.682-1.978 10.523-2.768 1.381 4.89 3.182 10.011 5.338 15.252-5.542 10.236-9.47 20.122-11.49 28.767-1.425 6.093-1.947 11.574-1.29 16.3s2.64 8.92 6.367 11.302c3.536 2.26 7.915 2.434 12.288 1.317s8.958-3.49 13.74-6.843a3.44 3.44 0 1 0-3.95-5.633c-4.317 3.028-8.3 4.997-11.491 5.813s-5.37.522-6.888-.448c-1.596-1.02-2.767-2.979-3.25-6.458s-.13-8.255 1.164-13.792c1.526-6.528 4.474-14.152 8.418-22.157.824 1.729 1.67 3.464 2.57 5.204 8.051 15.55 17.647 28.476 26.94 36.988 4.648 4.256 9.212 7.422 13.677 9.215s9.085 2.208 13.04.224c3.803-1.907 6.184-5.657 7.38-10.049 1.196-4.39 1.37-9.597.76-15.467-1.218-11.74-5.646-26.163-12.931-41.063a3.44 3.44 0 1 0-6.18 3.019c6.996 14.306 11.17 28.159 12.27 38.753.55 5.296.312 9.769-.555 12.95-.866 3.18-2.19 4.894-3.824 5.714-1.7.852-4.07.88-7.398-.457s-7.357-4.041-11.589-7.917c-8.463-7.752-17.744-20.13-25.48-35.072a162 162 0 0 1-4.648-9.816c1.75-3.08 3.626-6.195 5.678-9.305a164 164 0 0 1 6.332-8.903c.583-.008 1.122-.06 1.71-.062 3.06-.01 6.203.076 9.404.241 17.03.879 32.295 4.187 42.935 8.643 5.32 2.228 9.47 4.76 12.055 7.2s3.492 4.53 3.395 6.36c-.085 1.58-.914 3.252-3 5.122-2.087 1.87-5.367 3.76-9.593 5.374a3.44 3.44 0 1 0 2.454 6.421c4.764-1.818 8.737-3.987 11.732-6.672 2.996-2.685 5.072-6.064 5.276-9.878.234-4.41-2.058-8.442-5.544-11.732-3.486-3.291-8.28-6.101-14.115-8.544-11.67-4.887-27.551-8.25-45.246-9.162C-193.81.099-195.77.09-197.75.05c4.296-5.024 8.634-9.424 12.807-12.995 8.095-6.928 15.689-10.639 20.267-10.81 1.694-.063 2.927.268 3.923.905 1.496.956 2.614 2.71 3.161 5.821s.381 7.4-.618 12.404a3.44 3.44 0 0 0 6.744 1.344c1.113-5.573 1.408-10.585.645-14.93-.764-4.345-2.73-8.2-6.224-10.434-2.331-1.49-5.087-2.084-7.882-1.98-7.541.282-15.787 5.006-24.495 12.458-5.721 4.897-11.575 11.154-17.24 18.306-5.77.194-11.353.594-16.47 1.344-.573-2.607-1.045-5.127-1.334-7.47-.696-5.643-.54-10.43.313-13.846.853-3.415 2.232-5.246 3.932-6.099.639-.32 1.303-.502 2.14-.564 3.102-.229 8.323 1.872 14.125 6.61a3.44 3.44 0 1 0 4.352-5.33c-6.498-5.306-12.81-8.595-18.978-8.14zm6.627 40.571c-1.129 1.592-2.277 3.125-3.376 4.791a176 176 0 0 0-3.188 5.034 131 131 0 0 1-2.911-8.813c3.022-.426 6.174-.78 9.476-1.012zm19.39 12.503a7.495 7.377 0 0 0-7.71 7.37 7.495 7.377 0 0 0 14.982 0 7.495 7.377 0 0 0-7.272-7.37z" opacity="1" style="color-rendering:auto;text-decoration-color:#000;color:#000;isolation:auto;mix-blend-mode:normal;shape-rendering:auto;solid-color:#000;block-progression:tb;text-decoration-line:none;text-decoration-style:solid;image-rendering:auto;white-space:normal;text-indent:0;text-transform:none" transform="translate(66.131 19.285)scale(.21809)"/></g><g opacity=".15"><path d="M-218.58-33.356c-1.63.12-3.238.537-4.72 1.28-3.955 1.984-6.365 5.944-7.523 10.578s-1.232 10.142-.466 16.354c.311 2.517.798 5.18 1.389 7.908-4.014.839-7.834 1.785-11.177 2.973-5.15 1.83-9.45 4.042-12.691 6.798-3.24 2.755-5.501 6.257-5.714 10.255-.203 3.808 1.502 7.379 4.191 10.353s6.398 5.54 10.926 7.836a3.44 3.44 0 1 0 3.108-6.135c-4.016-2.036-7.07-4.248-8.938-6.314s-2.502-3.797-2.418-5.373c.088-1.656 1-3.423 3.304-5.383 2.305-1.96 5.917-3.913 10.532-5.552 3.06-1.087 6.682-1.978 10.523-2.768 1.381 4.89 3.182 10.011 5.338 15.252-5.542 10.236-9.47 20.122-11.49 28.767-1.425 6.093-1.947 11.574-1.29 16.3s2.64 8.92 6.367 11.302c3.536 2.26 7.915 2.434 12.288 1.317s8.958-3.49 13.74-6.843a3.44 3.44 0 1 0-3.95-5.633c-4.317 3.028-8.3 4.997-11.491 5.813s-5.37.522-6.888-.448c-1.596-1.02-2.767-2.979-3.25-6.458s-.13-8.255 1.164-13.792c1.526-6.528 4.474-14.152 8.418-22.157.824 1.729 1.67 3.464 2.57 5.204 8.051 15.55 17.647 28.476 26.94 36.988 4.648 4.256 9.212 7.422 13.677 9.215s9.085 2.208 13.04.224c3.803-1.907 6.184-5.657 7.38-10.049 1.196-4.39 1.37-9.597.76-15.467-1.218-11.74-5.646-26.163-12.931-41.063a3.44 3.44 0 1 0-6.18 3.019c6.996 14.306 11.17 28.159 12.27 38.753.55 5.296.312 9.769-.555 12.95-.866 3.18-2.19 4.894-3.824 5.714-1.7.852-4.07.88-7.398-.457s-7.357-4.041-11.589-7.917c-8.463-7.752-17.744-20.13-25.48-35.072a162 162 0 0 1-4.648-9.816c1.75-3.08 3.626-6.195 5.678-9.305a164 164 0 0 1 6.332-8.903c.583-.008 1.122-.06 1.71-.062 3.06-.01 6.203.076 9.404.241 17.03.879 32.295 4.187 42.935 8.643 5.32 2.228 9.47 4.76 12.055 7.2s3.492 4.53 3.395 6.36c-.085 1.58-.914 3.252-3 5.122-2.087 1.87-5.367 3.76-9.593 5.374a3.44 3.44 0 1 0 2.454 6.421c4.764-1.818 8.737-3.987 11.732-6.672 2.996-2.685 5.072-6.064 5.276-9.878.234-4.41-2.058-8.442-5.544-11.732-3.486-3.291-8.28-6.101-14.115-8.544-11.67-4.887-27.551-8.25-45.246-9.162C-193.81.099-195.77.09-197.75.05c4.296-5.024 8.634-9.424 12.807-12.995 8.095-6.928 15.689-10.639 20.267-10.81 1.694-.063 2.927.268 3.923.905 1.496.956 2.614 2.71 3.161 5.821s.381 7.4-.618 12.404a3.44 3.44 0 0 0 6.744 1.344c1.113-5.573 1.408-10.585.645-14.93-.764-4.345-2.73-8.2-6.224-10.434-2.331-1.49-5.087-2.084-7.882-1.98-7.541.282-15.787 5.006-24.495 12.458-5.721 4.897-11.575 11.154-17.24 18.306-5.77.194-11.353.594-16.47 1.344-.573-2.607-1.045-5.127-1.334-7.47-.696-5.643-.54-10.43.313-13.846.853-3.415 2.232-5.246 3.932-6.099.639-.32 1.303-.502 2.14-.564 3.102-.229 8.323 1.872 14.125 6.61a3.44 3.44 0 1 0 4.352-5.33c-6.498-5.306-12.81-8.595-18.978-8.14zm6.627 40.571c-1.129 1.592-2.277 3.125-3.376 4.791a176 176 0 0 0-3.188 5.034 131 131 0 0 1-2.911-8.813c3.022-.426 6.174-.78 9.476-1.012zm19.39 12.503a7.495 7.377 0 0 0-7.71 7.37 7.495 7.377 0 0 0 14.982 0 7.495 7.377 0 0 0-7.272-7.37z" opacity="1" style="color-rendering:auto;text-decoration-color:#000;color:#000;isolation:auto;mix-blend-mode:normal;shape-rendering:auto;solid-color:#000;block-progression:tb;text-decoration-line:none;text-decoration-style:solid;image-rendering:auto;white-space:normal;text-indent:0;text-transform:none" transform="translate(66.131 19.284)scale(.21809)"/></g><path fill="url(#e)" d="M-218.58-33.356c-1.63.12-3.238.537-4.72 1.28-3.955 1.984-6.365 5.944-7.523 10.578s-1.232 10.142-.466 16.354c.311 2.517.798 5.18 1.389 7.908-4.014.839-7.834 1.785-11.177 2.973-5.15 1.83-9.45 4.042-12.691 6.798-3.24 2.755-5.501 6.257-5.714 10.255-.203 3.808 1.502 7.379 4.191 10.353s6.398 5.54 10.926 7.836a3.44 3.44 0 1 0 3.108-6.135c-4.016-2.036-7.07-4.248-8.938-6.314s-2.502-3.797-2.418-5.373c.088-1.656 1-3.423 3.304-5.383 2.305-1.96 5.917-3.913 10.532-5.552 3.06-1.087 6.682-1.978 10.523-2.768 1.381 4.89 3.182 10.011 5.338 15.252-5.542 10.236-9.47 20.122-11.49 28.767-1.425 6.093-1.947 11.574-1.29 16.3s2.64 8.92 6.367 11.302c3.536 2.26 7.915 2.434 12.288 1.317s8.958-3.49 13.74-6.843a3.44 3.44 0 1 0-3.95-5.633c-4.317 3.028-8.3 4.997-11.491 5.813s-5.37.522-6.888-.448c-1.596-1.02-2.767-2.979-3.25-6.458s-.13-8.255 1.164-13.792c1.526-6.528 4.474-14.152 8.418-22.157.824 1.729 1.67 3.464 2.57 5.204 8.051 15.55 17.647 28.476 26.94 36.988 4.648 4.256 9.212 7.422 13.677 9.215s9.085 2.208 13.04.224c3.803-1.907 6.184-5.657 7.38-10.049 1.196-4.39 1.37-9.597.76-15.467-1.218-11.74-5.646-26.163-12.931-41.063a3.44 3.44 0 1 0-6.18 3.019c6.996 14.306 11.17 28.159 12.27 38.753.55 5.296.312 9.769-.555 12.95-.866 3.18-2.19 4.894-3.824 5.714-1.7.852-4.07.88-7.398-.457s-7.357-4.041-11.589-7.917c-8.463-7.752-17.744-20.13-25.48-35.072a162 162 0 0 1-4.648-9.816c1.75-3.08 3.626-6.195 5.678-9.305a164 164 0 0 1 6.332-8.903c.583-.008 1.122-.06 1.71-.062 3.06-.01 6.203.076 9.404.241 17.03.879 32.295 4.187 42.935 8.643 5.32 2.228 9.47 4.76 12.055 7.2s3.492 4.53 3.395 6.36c-.085 1.58-.914 3.252-3 5.122-2.087 1.87-5.367 3.76-9.593 5.374a3.44 3.44 0 1 0 2.454 6.421c4.764-1.818 8.737-3.987 11.732-6.672 2.996-2.685 5.072-6.064 5.276-9.878.234-4.41-2.058-8.442-5.544-11.732-3.486-3.291-8.28-6.101-14.115-8.544-11.67-4.887-27.551-8.25-45.246-9.162C-193.81.099-195.77.09-197.75.05c4.296-5.024 8.634-9.424 12.807-12.995 8.095-6.928 15.689-10.639 20.267-10.81 1.694-.063 2.927.268 3.923.905 1.496.956 2.614 2.71 3.161 5.821s.381 7.4-.618 12.404a3.44 3.44 0 0 0 6.744 1.344c1.113-5.573 1.408-10.585.645-14.93-.764-4.345-2.73-8.2-6.224-10.434-2.331-1.49-5.087-2.084-7.882-1.98-7.541.282-15.787 5.006-24.495 12.458-5.721 4.897-11.575 11.154-17.24 18.306-5.77.194-11.353.594-16.47 1.344-.573-2.607-1.045-5.127-1.334-7.47-.696-5.643-.54-10.43.313-13.846.853-3.415 2.232-5.246 3.932-6.099.639-.32 1.303-.502 2.14-.564 3.102-.229 8.323 1.872 14.125 6.61a3.44 3.44 0 1 0 4.352-5.33c-6.498-5.306-12.81-8.595-18.978-8.14zm6.627 40.571c-1.129 1.592-2.277 3.125-3.376 4.791a176 176 0 0 0-3.188 5.034 131 131 0 0 1-2.911-8.813c3.022-.426 6.174-.78 9.476-1.012zm19.39 12.503a7.495 7.377 0 0 0-7.71 7.37 7.495 7.377 0 0 0 14.982 0 7.495 7.377 0 0 0-7.272-7.37z" style="color-rendering:auto;text-decoration-color:#000;color:#000;isolation:auto;mix-blend-mode:normal;shape-rendering:auto;solid-color:#000;block-progression:tb;text-decoration-line:none;text-decoration-style:solid;image-rendering:auto;white-space:normal;text-indent:0;text-transform:none" transform="translate(66.131 18.284)scale(.21809)"/></svg>