<svg xmlns="http://www.w3.org/2000/svg" xml:space="preserve" width="32" height="32" viewBox="0 0 32 32"><path fill="#ea3939" d="M26.737 4.375Q31 8.75 31.001 15.875q0 6.5-4.264 11.312Q22.474 32 15.938 32q-6.474 0-10.706-4.812T1 15.875q0-7.125 4.171-11.5Q9.341.001 15.938 0q6.536 0 10.799 4.375m-5.446 6.687a19.3 19.3 0 0 0-.747-3.781q-.56-1.844-1.711-2.844-1.153-1-2.895-1-1.743 0-2.863.969-1.12.97-1.649 2.844c-.529 1.874-.591 2.5-.716 3.75q-.187 1.875-.187 4.562 0 1.688.062 2.844.06 1.157.218 2.812.155 1.656.498 2.781.341 1.125.934 2.219.591 1.093 1.524 1.656c.933.563 1.348.562 2.179.562q1.243 0 2.21-.562.964-.562 1.556-1.656.591-1.093.965-2.218c.374-1.125.436-1.677.56-2.781q.187-1.656.219-2.844.03-1.187.03-2.812 0-2.563-.187-4.501"/></svg>