<svg xmlns="http://www.w3.org/2000/svg" xmlns:xlink="http://www.w3.org/1999/xlink" width="128" height="128"><defs><linearGradient id="b"><stop offset="0" style="stop-color:#fff;stop-opacity:1"/><stop offset=".508" style="stop-color:#fff;stop-opacity:.23529412"/><stop offset=".835" style="stop-color:#fff;stop-opacity:.15686275"/><stop offset="1" style="stop-color:#fff;stop-opacity:.39215687"/></linearGradient><linearGradient id="a"><stop offset="0" style="stop-color:#3d3d3d;stop-opacity:1"/><stop offset=".5" style="stop-color:#686868;stop-opacity:.49803922"/><stop offset="1" style="stop-color:#686868;stop-opacity:0"/></linearGradient><linearGradient xlink:href="#b" id="f" x1="71.204" x2="71.204" y1="6.238" y2="44.341" gradientTransform="translate(-133.252 -3.404)scale(2.75676)" gradientUnits="userSpaceOnUse"/><linearGradient xlink:href="#c" id="e" x1="2035.165" x2="2035.165" y1="3208.074" y2="3241.997" gradientTransform="matrix(3.98562 0 0 2.97964 -8061.465 -9541.517)" gradientUnits="userSpaceOnUse"/><linearGradient id="c"><stop offset="0" style="stop-color:#ffe16b;stop-opacity:1"/><stop offset="1" style="stop-color:#f9c440;stop-opacity:1"/></linearGradient><radialGradient xlink:href="#a" id="d" cx="99.157" cy="186.171" r="62.769" fx="99.157" fy="186.171" gradientTransform="matrix(.68694 0 0 .21462 -4.022 68.573)" gradientUnits="userSpaceOnUse"/></defs><path d="M107.212 108.529a43.119 13.471 0 1 1-86.237 0 43.119 13.471 0 1 1 86.237 0" style="fill:url(#d);fill-opacity:1;stroke:none"/><path d="M64.5 14.5c-28.692 0-52 23.308-52 52s23.308 52 52 52 52-23.308 52-52-23.308-52-52-52" style="color:#000;display:inline;overflow:visible;visibility:visible;opacity:.98999999;fill:url(#e);fill-opacity:1;fill-rule:nonzero;stroke:none;stroke-width:1.95238054;marker:none"/><path d="M115.5 66.498c0 28.168-22.835 51.002-51 51.002-28.166 0-51-22.835-51-51.002 0-28.166 22.834-50.998 51-50.998 28.165 0 51 22.832 51 50.998" style="color:#000;display:inline;overflow:visible;visibility:visible;opacity:.5;fill:none;stroke:url(#f);stroke-width:.99999988;stroke-linecap:round;stroke-linejoin:round;stroke-miterlimit:4;stroke-dasharray:none;stroke-dashoffset:0;stroke-opacity:1;marker:none"/><path d="M64.5 14.5c-28.692 0-52 23.308-52 52s23.308 52 52 52 52-23.308 52-52-23.308-52-52-52" style="color:#000;display:inline;overflow:visible;visibility:visible;opacity:.4;vector-effect:none;fill:none;fill-opacity:1;stroke:#ad5f00;stroke-width:.99999994;stroke-linecap:round;stroke-linejoin:round;stroke-miterlimit:4;stroke-dasharray:none;stroke-dashoffset:0;stroke-opacity:1;marker:none;clip-rule:nonzero;isolation:auto;mix-blend-mode:normal;color-interpolation:sRGB;color-interpolation-filters:linearRGB;solid-color:#000;solid-opacity:1;fill-rule:nonzero;filter-blend-mode:normal;filter-gaussianBlur-deviation:0;color-rendering:auto;image-rendering:auto;shape-rendering:auto;text-rendering:auto;font-variation-settings:normal;font-variant-east_asian:normal"/><path d="M75.076 37.534 49 75h15l-10.076 25.992L80 64H68Z" style="display:inline;overflow:visible;visibility:visible;opacity:.4;vector-effect:none;fill:#fff;fill-opacity:1;fill-rule:nonzero;stroke:none;stroke-width:1;stroke-linecap:butt;stroke-linejoin:miter;stroke-miterlimit:4;stroke-dasharray:none;stroke-dashoffset:0;stroke-opacity:1;marker:none"/><path d="M75.076 36.534 49 74h15L53.924 99.992 80 63H68Z" style="display:inline;overflow:visible;visibility:visible;fill:#333;fill-opacity:1;fill-rule:nonzero;stroke:none;stroke-width:1;marker:none"/></svg>