<svg xmlns="http://www.w3.org/2000/svg" xmlns:xlink="http://www.w3.org/1999/xlink" width="48" height="48" enable-background="new"><defs><linearGradient xlink:href="#a" id="u" x1="16.626" x2="20.055" y1="15.298" y2="24.628" gradientTransform="matrix(.82498 0 0 1.30123 4.162 -1.433)" gradientUnits="userSpaceOnUse"/><linearGradient id="a"><stop offset="0" style="stop-color:#fff;stop-opacity:1"/><stop offset="1" style="stop-color:#fff;stop-opacity:0"/></linearGradient><linearGradient xlink:href="#b" id="q" x1="24" x2="24" y1="5" y2="43" gradientTransform="translate(0 1)" gradientUnits="userSpaceOnUse"/><linearGradient id="b"><stop offset="0" style="stop-color:#fff;stop-opacity:1"/><stop offset=".063" style="stop-color:#fff;stop-opacity:.23529412"/><stop offset=".951" style="stop-color:#fff;stop-opacity:.15686275"/><stop offset="1" style="stop-color:#fff;stop-opacity:.39215687"/></linearGradient><linearGradient id="c"><stop offset="0" style="stop-color:#90dbec;stop-opacity:1"/><stop offset=".262" style="stop-color:#55c1ec;stop-opacity:1"/><stop offset=".705" style="stop-color:#3689e6;stop-opacity:1"/><stop offset="1" style="stop-color:#2b63a0;stop-opacity:1"/></linearGradient><linearGradient xlink:href="#d" id="p" x1="24" x2="24" y1="44" y2="3.899" gradientTransform="translate(0 1)" gradientUnits="userSpaceOnUse"/><linearGradient id="d"><stop offset="0" style="stop-color:#185f9a;stop-opacity:1"/><stop offset="1" style="stop-color:#599ec9;stop-opacity:1"/></linearGradient><linearGradient id="e"><stop offset="0" style="stop-color:#181818;stop-opacity:1"/><stop offset="1" style="stop-color:#181818;stop-opacity:0"/></linearGradient><linearGradient id="f"><stop offset="0" style="stop-color:#181818;stop-opacity:1"/><stop offset="1" style="stop-color:#181818;stop-opacity:0"/></linearGradient><linearGradient id="g"><stop offset="0" style="stop-color:#181818;stop-opacity:0"/><stop offset=".5" style="stop-color:#181818;stop-opacity:1"/><stop offset="1" style="stop-color:#181818;stop-opacity:0"/></linearGradient><linearGradient xlink:href="#g" id="n" x1="25.058" x2="25.058" y1="47.028" y2="39.999" gradientUnits="userSpaceOnUse"/><linearGradient id="h"><stop offset="0" style="stop-color:#365a7c;stop-opacity:1"/><stop offset="1" style="stop-color:#5ea1ca;stop-opacity:1"/></linearGradient><linearGradient id="i"><stop offset="0" style="stop-color:#365a7c;stop-opacity:1"/><stop offset="1" style="stop-color:#5ea1ca;stop-opacity:1"/></linearGradient><linearGradient xlink:href="#h" id="r" x1="22" x2="23" y1="53" y2="-5" gradientUnits="userSpaceOnUse"/><linearGradient xlink:href="#i" id="k" x1="22" x2="23" y1="53" y2="-5" gradientUnits="userSpaceOnUse"/><linearGradient xlink:href="#h" id="t" x1="25" x2="25" y1="44" y2="6" gradientUnits="userSpaceOnUse"/><linearGradient xlink:href="#i" id="s" x1="25" x2="25" y1="44" y2="6" gradientUnits="userSpaceOnUse"/><radialGradient xlink:href="#c" id="o" cx="7.496" cy="8.45" r="20" fx="7.496" fy="8.45" gradientTransform="matrix(0 2.33699 -2.47226 0 44.89 -11.435)" gradientUnits="userSpaceOnUse"/><radialGradient xlink:href="#e" id="l" cx="4.993" cy="43.5" r="2.5" fx="4.993" fy="43.5" gradientTransform="matrix(2.00378 0 0 1.4 27.988 -17.4)" gradientUnits="userSpaceOnUse"/><radialGradient xlink:href="#f" id="m" cx="4.993" cy="43.5" r="2.5" fx="4.993" fy="43.5" gradientTransform="matrix(2.00378 0 0 1.4 -20.012 -104.4)" gradientUnits="userSpaceOnUse"/><filter id="j"><feBlend in2="BackgroundImage" mode="multiply"/></filter></defs><g style="filter:url(#j)"><path d="M8 9v32h32V9zm2 2h28v28H10z" style="font-size:medium;font-style:normal;font-variant:normal;font-weight:400;font-stretch:normal;text-indent:0;text-align:start;text-decoration:none;line-height:normal;letter-spacing:normal;word-spacing:normal;text-transform:none;direction:ltr;block-progression:tb;writing-mode:lr-tb;text-anchor:start;baseline-shift:baseline;color:#000;fill:none;fill-opacity:1;stroke:url(#k);stroke-width:4;marker:none;visibility:visible;display:inline;overflow:visible;enable-background:accumulate;font-family:Sans;-inkscape-font-specification:Sans;stroke-miterlimit:4;stroke-dasharray:none;stroke-opacity:1;opacity:.1"/><g style="opacity:.4"><path d="M38 40h5v7h-5z" style="fill:url(#l);fill-opacity:1;stroke:none" transform="matrix(1.1579 0 0 .57143 -3.79 19.143)"/><path d="M-10-47h5v7h-5z" style="fill:url(#m);fill-opacity:1;stroke:none" transform="matrix(-1.1579 0 0 -.57143 -3.79 19.143)"/><path d="M10 40h28v7H10z" style="fill:url(#n);fill-opacity:1;stroke:none" transform="matrix(1.1579 0 0 .57143 -3.79 19.143)"/></g><rect width="39" height="39" x="4.5" y="5.5" rx="2" ry="2" style="color:#000;fill:url(#o);fill-opacity:1;fill-rule:nonzero;stroke:url(#p);stroke-width:1;stroke-linecap:round;stroke-linejoin:round;stroke-miterlimit:4;stroke-opacity:1;stroke-dasharray:none;stroke-dashoffset:0;marker:none;visibility:visible;display:inline;overflow:visible;enable-background:accumulate"/><rect width="37" height="37" x="5.5" y="6.5" rx="1" ry="1" style="opacity:.5;fill:none;stroke:url(#q);stroke-width:1;stroke-linecap:round;stroke-linejoin:round;stroke-miterlimit:4;stroke-opacity:1;stroke-dasharray:none;stroke-dashoffset:0"/><path d="M8 10v30s0 1 1 1h30c1 0 1-1 1-1V10c0-1-1-1-1-1H9c-1 0-1 1-1 1zm2 1h28v28H10z" style="font-size:medium;font-style:normal;font-variant:normal;font-weight:400;font-stretch:normal;text-indent:0;text-align:start;text-decoration:none;line-height:normal;letter-spacing:normal;word-spacing:normal;text-transform:none;direction:ltr;block-progression:tb;writing-mode:lr-tb;text-anchor:start;baseline-shift:baseline;opacity:.25;color:#000;fill:none;stroke:url(#r);stroke-width:2;stroke-miterlimit:4;stroke-opacity:1;stroke-dasharray:none;marker:none;visibility:visible;display:inline;overflow:visible;enable-background:accumulate;font-family:Sans;-inkscape-font-specification:Sans"/><path d="m29 11-3 13-3-13-5 20-2-9h-6v2h4.5L18 39l5-20 3 13 3-13 3 14h6v-2h-4.5z" style="font-size:medium;font-style:normal;font-variant:normal;font-weight:400;font-stretch:normal;text-indent:0;text-align:start;text-decoration:none;line-height:normal;letter-spacing:normal;word-spacing:normal;text-transform:none;direction:ltr;block-progression:tb;writing-mode:lr-tb;text-anchor:start;baseline-shift:baseline;color:#000;fill:#fff;fill-opacity:1;stroke:url(#s);stroke-width:4;marker:none;visibility:visible;display:inline;overflow:visible;enable-background:accumulate;font-family:Sans;-inkscape-font-specification:Sans;opacity:.10000000000000001;stroke-miterlimit:4;stroke-dasharray:none;stroke-linejoin:round"/><path d="m29 11-3 13-3-13-5 20-2-9h-6v2h4.5L18 39l5-20 3 13 3-13 3 14h6v-2h-4.5z" style="font-size:medium;font-style:normal;font-variant:normal;font-weight:400;font-stretch:normal;text-indent:0;text-align:start;text-decoration:none;line-height:normal;letter-spacing:normal;word-spacing:normal;text-transform:none;direction:ltr;block-progression:tb;writing-mode:lr-tb;text-anchor:start;baseline-shift:baseline;color:#000;fill:#fff;fill-opacity:1;stroke:url(#t);stroke-width:2;marker:none;visibility:visible;display:inline;overflow:visible;enable-background:accumulate;font-family:Sans;-inkscape-font-specification:Sans;opacity:.25;stroke-linejoin:round"/><path d="m29 11-3 13-3-13-5 20-2-9h-6v2h4.5L18 39l5-20 3 13 3-13 3 14h6v-2h-4.5z" style="font-size:medium;font-style:normal;font-variant:normal;font-weight:400;font-stretch:normal;text-indent:0;text-align:start;text-decoration:none;line-height:normal;letter-spacing:normal;word-spacing:normal;text-transform:none;direction:ltr;block-progression:tb;writing-mode:lr-tb;text-anchor:start;baseline-shift:baseline;color:#000;fill:#fff;fill-opacity:1;stroke:none;stroke-width:2;marker:none;visibility:visible;display:inline;overflow:visible;enable-background:accumulate;font-family:Sans;-inkscape-font-specification:Sans"/><path d="M6.217 6C5.537 6 5 6.912 5 7.8L5.013 30C6.106 29.976 42.17 21.153 43 20.729V7.8c0-.678-.531-1.8-1.12-1.8z" style="opacity:.2;fill:url(#u);fill-opacity:1;fill-rule:evenodd;stroke:none"/><path d="m29 11-3 13-3-13-5 20-2-9h-6v2h4.5L18 39l5-20 3 13 3-12 2.5 13H38v-2h-5z" style="font-size:medium;font-style:normal;font-variant:normal;font-weight:400;font-stretch:normal;text-indent:0;text-align:start;text-decoration:none;line-height:normal;letter-spacing:normal;word-spacing:normal;text-transform:none;direction:ltr;block-progression:tb;writing-mode:lr-tb;text-anchor:start;baseline-shift:baseline;color:#000;fill:none;fill-opacity:1;stroke:none;stroke-width:4;marker:none;visibility:visible;display:inline;overflow:visible;enable-background:accumulate;font-family:Sans;-inkscape-font-specification:Sans;stroke-opacity:1;opacity:.25;stroke-miterlimit:4;stroke-dasharray:none"/><path d="M9 9c-1 0-1 1-1 1v30s0 1 1 1h30c1 0 1-1 1-1V10c0-1-1-1-1-1zm1 2h28v28H10z" style="font-size:medium;font-style:normal;font-variant:normal;font-weight:400;font-stretch:normal;text-indent:0;text-align:start;text-decoration:none;line-height:normal;letter-spacing:normal;word-spacing:normal;text-transform:none;direction:ltr;block-progression:tb;writing-mode:lr-tb;text-anchor:start;baseline-shift:baseline;color:#000;fill:#fff;fill-opacity:1;stroke:none;stroke-width:1px;marker:none;visibility:visible;display:inline;overflow:visible;enable-background:accumulate;font-family:Sans;-inkscape-font-specification:Sans"/></g></svg>