<svg xmlns="http://www.w3.org/2000/svg" viewBox="0 0 116 116">
  <path fill="#ef3939" d="M58 115c25 0 38.9 0 47.9-9.1C115 96.9 115 83 115 58s0-38.9-9.1-47.9C96.9 1 83 1 58 1s-38.9 0-47.9 9.1C1 19.1 1 33 1 58s0 38.9 9.1 47.9C19.1 115 33 115 58 115z"/>
  <linearGradient id="a" x1="36.55" x2="91.02" y1="21.06" y2="115.39" gradientUnits="userSpaceOnUse">
    <stop offset="0" stop-opacity=".2"/>
    <stop offset=".79" stop-opacity=".05"/>
  </linearGradient>
  <path fill="url(#a)" d="M95.1 36.9A42.7 42.7 0 1 0 21.2 80l20.1 34.8 10.8.1h5.7c11.1 0 20 0 27.3-.8 9.1-1 15.6-3.2 20.7-8.3 7.3-7.3 8.7-17.9 9-34.9a3101.9 3101.9 0 0 1-19.7-34z"/>
  <path fill="#fff" d="M88 27.8a42.7 42.7 0 1 0-60.3 60.5A42.7 42.7 0 1 0 88 27.8zm-2.5 19.7L64.4 84.2c-1.3 2.3-3.2 3.7-5.8 3.8-2.9.2-5.2-1-6.7-3.6L38.6 61.3l-8.1-14a7.1 7.1 0 0 1 5.8-10.8 6.8 6.8 0 0 1 6.5 3.7l5.9 10.3 4.3 7.4c2.1 3.5 5.2 5.5 9.3 5.8 5.8.3 11.3-3.9 12-10.1l.1-1.2c0-2-.4-3.7-1.2-5.3a7 7 0 0 1 4.9-10.3 7 7 0 0 1 8.4 5.9 8 8 0 0 1-1 4.8z"/>
</svg>
