<svg xmlns="http://www.w3.org/2000/svg" xmlns:xlink="http://www.w3.org/1999/xlink" width="48" height="48"><defs><linearGradient id="c"><stop offset="0" style="stop-color:#fff;stop-opacity:1"/><stop offset=".145" style="stop-color:#fff;stop-opacity:.23529412"/><stop offset=".951" style="stop-color:#fff;stop-opacity:.15686275"/><stop offset="1" style="stop-color:#fff;stop-opacity:.39215687"/></linearGradient><linearGradient xlink:href="#b" id="p" x1="12.941" x2="12.941" y1="20.897" y2=".782" gradientUnits="userSpaceOnUse"/><linearGradient xlink:href="#c" id="q" x1="16.73" x2="16.73" y1="-1.418" y2="21.105" gradientUnits="userSpaceOnUse"/><linearGradient id="e"><stop offset="0" style="stop-color:#a7651c;stop-opacity:1"/><stop offset="1" style="stop-color:#c8a700;stop-opacity:1"/></linearGradient><linearGradient id="l"><stop offset="0" style="stop-color:#ffeb9f;stop-opacity:1"/><stop offset=".262" style="stop-color:#ffd57e;stop-opacity:1"/><stop offset=".661" style="stop-color:#ffbc43;stop-opacity:1"/><stop offset="1" style="stop-color:#ff921a;stop-opacity:1"/></linearGradient><linearGradient id="b"><stop offset="0" style="stop-color:#aaa;stop-opacity:1"/><stop offset="1" style="stop-color:#c8c8c8;stop-opacity:1"/></linearGradient><linearGradient id="a"><stop offset="0" style="stop-color:#f4f4f4;stop-opacity:1"/><stop offset="1" style="stop-color:#dbdbdb;stop-opacity:1"/></linearGradient><linearGradient id="i"><stop offset="0" style="stop-color:#cdf87e;stop-opacity:1"/><stop offset=".262" style="stop-color:#a2e34f;stop-opacity:1"/><stop offset=".661" style="stop-color:#68b723;stop-opacity:1"/><stop offset="1" style="stop-color:#1d7e0d;stop-opacity:1"/></linearGradient><linearGradient id="g"><stop offset="0" style="stop-color:#791235;stop-opacity:1"/><stop offset="1" style="stop-color:#dd3b27;stop-opacity:1"/></linearGradient><linearGradient id="j"><stop offset="0" style="stop-color:#f8b17e;stop-opacity:1"/><stop offset=".262" style="stop-color:#e35d4f;stop-opacity:1"/><stop offset=".661" style="stop-color:#c6262e;stop-opacity:1"/><stop offset="1" style="stop-color:#690b54;stop-opacity:1"/></linearGradient><linearGradient id="f"><stop offset="0" style="stop-color:#185f9a;stop-opacity:1"/><stop offset="1" style="stop-color:#599ec9;stop-opacity:1"/></linearGradient><linearGradient id="k"><stop offset="0" style="stop-color:#90dbec;stop-opacity:1"/><stop offset=".262" style="stop-color:#55c1ec;stop-opacity:1"/><stop offset=".705" style="stop-color:#3689e6;stop-opacity:1"/><stop offset="1" style="stop-color:#2b63a0;stop-opacity:1"/></linearGradient><linearGradient id="h"><stop offset="0" style="stop-color:#505050;stop-opacity:1"/><stop offset="1" style="stop-color:#8e8e8e;stop-opacity:1"/></linearGradient><linearGradient id="d" x1="206.69" x2="206.69" y1="-167.532" y2="-167.532" gradientTransform="matrix(1 0 0 -1 -270.96 -122.075)" gradientUnits="userSpaceOnUse"><stop offset="0" style="stop-color:#7e9ec4;stop-opacity:1"/><stop offset="1" style="stop-color:#151d89;stop-opacity:1"/></linearGradient><linearGradient xlink:href="#e" id="C" x1="30.545" x2="30.545" y1="23.722" y2="9.716" gradientTransform="matrix(.9549 0 0 .96385 8.88 -8.295)" gradientUnits="userSpaceOnUse"/><linearGradient xlink:href="#f" id="A" x1="30.016" x2="30.016" y1="23.674" y2="9.716" gradientTransform="matrix(.9549 0 0 .96385 .605 .06)" gradientUnits="userSpaceOnUse"/><linearGradient xlink:href="#g" id="y" x1="30.149" x2="30.149" y1="22.685" y2="9.978" gradientTransform="matrix(.9549 0 0 .96385 -7.671 -8.295)" gradientUnits="userSpaceOnUse"/><linearGradient xlink:href="#h" id="v" x1="44.228" x2="16.355" y1="18.456" y2="-9.417" gradientTransform="matrix(.73149 .73843 -.73149 .73843 -1.345 -17.978)" gradientUnits="userSpaceOnUse"/><linearGradient xlink:href="#i" id="w" x1="26.156" x2="25.904" y1="-5.131" y2="5.832" gradientTransform="translate(1.772 -1.143)" gradientUnits="userSpaceOnUse"/><linearGradient xlink:href="#j" id="x" x1="4.845" x2="4.845" y1="2.063" y2="15.55" gradientTransform="translate(1.772 -1.143)" gradientUnits="userSpaceOnUse"/><linearGradient xlink:href="#k" id="z" x1="17.036" x2="17.036" y1="11.428" y2="23.426" gradientTransform="translate(1.772 -1.143)" gradientUnits="userSpaceOnUse"/><linearGradient xlink:href="#l" id="B" x1="25.944" x2="25.944" y1="2.695" y2="15.081" gradientTransform="translate(1.772 -1.143)" gradientUnits="userSpaceOnUse"/><linearGradient id="m"><stop offset="0" style="stop-color:#000;stop-opacity:1"/><stop offset="1" style="stop-color:#000;stop-opacity:0"/></linearGradient><radialGradient xlink:href="#a" id="o" cx="6.94" cy="5.635" r="10.558" fx="6.94" fy="5.635" gradientTransform="rotate(80.833 11.787 9.142)scale(1.39454 2.016)" gradientUnits="userSpaceOnUse"/><radialGradient xlink:href="#m" id="n" cx="62.625" cy="4.625" r="10.625" fx="62.625" fy="4.625" gradientTransform="matrix(2.1647 0 0 .87466 -111.565 18.661)" gradientUnits="userSpaceOnUse"/></defs><path d="M47 22.707a23 9.293 0 0 1-46 0 23 9.293 0 1 1 46 0" style="opacity:.4;fill:url(#n);fill-opacity:1;fill-rule:evenodd;stroke:none;stroke-width:.99999988;marker:none;visibility:visible;display:inline;overflow:visible" transform="translate(0 16)"/><path d="M22.415 11.185a10.136 10.136 0 1 1-20.272 0 10.136 10.136 0 1 1 20.272 0z" style="fill:url(#o);fill-opacity:1;fill-rule:nonzero;stroke:url(#p);stroke-width:.39362785;stroke-linecap:square;stroke-linejoin:round;stroke-miterlimit:4;stroke-opacity:1;stroke-dasharray:none" transform="translate(-.956 1.268)scale(2.03238)"/><path d="M22.415 11.185a10.136 10.136 0 1 1-20.272 0 10.136 10.136 0 1 1 20.272 0z" style="fill:none;stroke:url(#q);stroke-width:.41371092;stroke-linecap:square;stroke-linejoin:round;stroke-miterlimit:4;stroke-opacity:1;stroke-dasharray:none" transform="translate(.256 2.371)scale(1.93372)"/><path d="m24 10.424 6.724 6.788L24 24l-6.724-6.788zM15.724 2.07l6.724 6.788-6.724 6.788L9 8.858zm16.552.284L39 9l-6.724 6.646L25.552 9zM24-6 30.724.646 24 7.29 17.276.646z" style="opacity:.4;color:#000;fill:#fff;fill-opacity:1;fill-rule:nonzero;stroke:none;stroke-width:1.70000005;marker:none;visibility:visible;display:inline;overflow:visible;enable-background:accumulate" transform="translate(0 16)"/><path d="m24 9.174 6.724 6.788L24 22.75l-6.724-6.788zM15.724.82l6.724 6.788-6.724 6.788L9 7.608zm16.552.284L39 7.75l-6.724 6.646-6.724-6.646zM24-7.25l6.724 6.646L24 6.04 17.276-.604z" style="color:#000;fill:url(#v);fill-opacity:1;fill-rule:nonzero;stroke:none;stroke-width:1.70000005;marker:none;visibility:visible;display:inline;overflow:visible;enable-background:accumulate" transform="translate(0 16)"/><path d="m24-6.49 6.207 6.004L24 5.52 17.793-.486z" style="color:#000;fill:url(#w);fill-opacity:1;stroke:#699536;stroke-width:.99999988;stroke-miterlimit:4;stroke-opacity:1;stroke-dasharray:none;marker:none;visibility:visible;display:inline;overflow:visible;enable-background:accumulate" transform="translate(0 16)"/><path d="m15.724 1.606 6.207 6.134-6.207 6.133L9.517 7.74z" style="color:#000;fill:url(#x);fill-opacity:1;stroke:url(#y);stroke-width:.99999988;stroke-miterlimit:4;stroke-opacity:1;stroke-dasharray:none;marker:none;visibility:visible;display:inline;overflow:visible;enable-background:accumulate" transform="translate(0 16)"/><path d="m24 9.96 6.207 6.134L24 22.228l-6.207-6.134z" style="color:#000;fill:url(#z);fill-opacity:1;stroke:url(#A);stroke-width:.99999988;stroke-miterlimit:4;stroke-opacity:1;stroke-dasharray:none;marker:none;visibility:visible;display:inline;overflow:visible;enable-background:accumulate" transform="translate(0 16)"/><path d="m32.276 1.606 6.207 6.134-6.207 6.133-6.207-6.133z" style="color:#000;fill:url(#B);fill-opacity:1;stroke:url(#C);stroke-width:.99999988;stroke-miterlimit:4;stroke-opacity:1;stroke-dasharray:none;marker:none;visibility:visible;display:inline;overflow:visible;enable-background:accumulate" transform="translate(0 16)"/></svg>