<svg xml:space="preserve" width="1024pt" height="1024" viewBox="0 0 1024 768"><g style="fill-rule:nonzero;clip-rule:nonzero;stroke:#000;stroke-miterlimit:4"><radialGradient id="a" cx="963.695" cy="79.861" r="1436.621" fx="963.695" fy="79.861" gradientTransform="matrix(.4269 0 0 .6347 116.573 139.392)" gradientUnits="userSpaceOnUse"><stop offset="0" style="stop-color:#9ec7e0"/><stop offset=".137" style="stop-color:#98c1db"/><stop offset=".316" style="stop-color:#88b1cd"/><stop offset=".518" style="stop-color:#6d96b6"/><stop offset=".738" style="stop-color:#477196"/><stop offset=".97" style="stop-color:#17426e"/><stop offset="1" style="stop-color:#103b68"/></radialGradient><path stroke="none" d="M1024 768H0V0h1024z" style="fill:url(#a);stroke:none"/><radialGradient id="b" cx="423.142" cy="473.297" r="799.884" fx="423.142" fy="473.297" gradientTransform="matrix(.7558 0 0 1 81.302 0)" gradientUnits="userSpaceOnUse"><stop offset="0" style="stop-color:#fff"/><stop offset=".191" style="stop-color:#fbfcfe"/><stop offset=".4" style="stop-color:#edf5f9"/><stop offset=".616" style="stop-color:#d8e8f2"/><stop offset=".837" style="stop-color:#b9d7e9"/><stop offset="1" style="stop-color:#9ec7e0"/></radialGradient><path stroke="none" d="M2.036 599.854v19.172s123.492-149.83 358.881-149.83c279.494 0 306.507 201.039 663.083 201.039v-45.514c-339.801 0-394.867-175.12-627.687-175.12-267.578 0-394.277 150.253-394.277 150.253" style="opacity:.25;fill:url(#b);stroke:none"/><radialGradient id="c" cx="423.142" cy="334.999" r="816.385" fx="423.142" fy="334.999" gradientTransform="matrix(.7558 0 0 1 81.302 0)" gradientUnits="userSpaceOnUse"><stop offset="0" style="stop-color:#fff"/><stop offset=".191" style="stop-color:#fbfcfe"/><stop offset=".4" style="stop-color:#edf5f9"/><stop offset=".616" style="stop-color:#d8e8f2"/><stop offset=".837" style="stop-color:#b9d7e9"/><stop offset="1" style="stop-color:#9ec7e0"/></radialGradient><path stroke="none" d="M2.036 534.061v37.449s150.311-175.414 358.881-175.414c277.097 0 308.384 201.033 663.083 201.033v-173.44c-339.801 0-408.33-120.23-613.917-120.23-205.594 0-408.046 230.602-408.046 230.602z" style="opacity:.25;fill:url(#c);stroke:none"/></g></svg>